#!OML:ASF E:\emotionWalksFemale\Project 1\Capture day 1\Session 1\Female1.ASF
:FULLY-SPECIFIED
:DEGREES
2733
root 11.2487 15.3919 8.76343 -2.45985 -3.72382 2.26376
lowerback 7.56703 -2.80231 -3.77052
upperback -4.73373 -4.20938 -0.0503126
thorax -9.00901 -1.81613 2.691
lowerneck -5.55139 -3.32086 -4.78171
upperneck 13.6318 -5.16128 8.05962
head 5.33562 -2.27331 2.97452
rclavicle 5.37961e-014 8.94531e-016
rhumerus -50.1688 0.300156 -76.4992
rradius 40.4931
rwrist 14.2004
rhand -4.57036 -51.4139
rfingers 7.12502
rthumb 21.2062 -80.2739
lclavicle 5.37961e-014 8.94531e-016
lhumerus -44.6753 5.17271 79.4234
lradius 33.6017
lwrist -16.3386
lhand -4.8026 -31.7879
lfingers 7.12502
lthumb 20.9831 -2.90293
rfemur -27.1046 17.8333 16.4806
rtibia 27.4725
rfoot -14.451 -28.0144
rtoes -5.50525
lfemur 7.38281 -6.59964 -33.3123
ltibia 19.5736
lfoot -21.6658 7.89989
ltoes -18.8547
2734
root 11.2404 15.3912 8.82339 -2.3943 -3.73652 2.23517
lowerback 7.40584 -2.76791 -3.71172
upperback -4.73397 -4.14584 -0.0126641
thorax -8.91952 -1.7906 2.67897
lowerneck -5.28407 -3.28482 -4.88648
upperneck 13.4474 -5.09149 8.02851
head 5.22967 -2.25522 2.99048
rclavicle 5.04416e-015 8.74653e-015
rhumerus -50.2962 0.458289 -76.4242
rradius 40.5614
rwrist 14.3705
rhand -4.34685 -51.1723
rfingers 7.12502
rthumb 21.4209 -80.0081
lclavicle 5.04416e-015 8.74653e-015
lhumerus -44.6526 5.14398 79.5085
lradius 33.3329
lwrist -16.4089
lhand -5.32498 -32.022
lfingers 7.12502
lthumb 20.4811 -3.08225
rfemur -27.2633 18.9487 16.0834
rtibia 27.0687
rfoot -15.2807 -28.8065
rtoes -4.56404
lfemur 7.71161 -6.56939 -33.288
ltibia 19.3357
lfoot -21.4673 7.94098
ltoes -19.8554
2735
root 11.2347 15.3865 8.87851 -2.33111 -3.65436 2.45569
lowerback 7.46567 -2.7627 -3.89891
upperback -4.85786 -4.16875 -0.028892
thorax -9.07821 -1.78428 2.77766
lowerneck -4.98026 -3.24598 -4.99296
upperneck 13.3578 -5.02715 7.99782
head 5.14722 -2.23934 3.00717
rclavicle 3.23025e-014 2.18663e-015
rhumerus -50.3757 0.631156 -76.3604
rradius 40.3773
rwrist 14.4092
rhand -4.3863 -51.1161
rfingers 7.12502
rthumb 21.383 -79.9562
lclavicle 3.23025e-014 2.18663e-015
lhumerus -44.9729 5.07425 79.615
lradius 33.3985
lwrist -16.2338
lhand -5.61628 -32.1803
lfingers 7.12502
lthumb 20.2012 -3.21074
rfemur -27.4135 19.6522 15.476
rtibia 26.6411
rfoot -16.1178 -29.3083
rtoes -3.58464
lfemur 8.00683 -6.64947 -33.5096
ltibia 19.1826
lfoot -21.434 7.34199
ltoes -17.0216
2736
root 11.2243 15.3812 8.9351 -2.26821 -3.53123 2.55138
lowerback 7.4796 -2.71889 -3.95771
upperback -4.88197 -4.12394 -0.0964527
thorax -9.11751 -1.75968 2.7342
lowerneck -4.9233 -3.29248 -5.05698
upperneck 13.291 -5.10651 8.17668
head 5.12815 -2.27271 3.06945
rclavicle -5.2181e-016 2.38542e-015
rhumerus -50.2369 0.455585 -76.2882
rradius 40.0748
rwrist 14.3775
rhand -4.31196 -51.0971
rfingers 7.12502
rthumb 21.4544 -79.9291
lclavicle -5.2181e-016 2.38542e-015
lhumerus -44.9673 4.87315 79.6919
lradius 33.3975
lwrist -15.8671
lhand -5.44261 -31.9121
lfingers 7.12502
lthumb 20.3681 -2.96024
rfemur -27.5756 20.5209 14.9621
rtibia 26.1929
rfoot -16.497 -30.137
rtoes -3.48807
lfemur 8.22306 -6.84084 -33.5851
ltibia 19.1284
lfoot -21.5985 6.58347
ltoes -12.2983
2737
root 11.2119 15.378 8.99486 -2.26756 -3.43415 2.42
lowerback 7.4996 -2.65055 -3.75374
upperback -4.82267 -4.01001 -0.126974
thorax -9.08717 -1.71974 2.57126
lowerneck -5.0201 -3.32195 -5.03907
upperneck 13.263 -5.16014 8.30183
head 5.14253 -2.28831 3.10073
rclavicle 2.1419e-014 6.95746e-015
rhumerus -50.1553 0.277039 -76.2387
rradius 39.9359
rwrist 14.4344
rhand -4.2938 -51.0859
rfingers 7.12502
rthumb 21.4718 -79.9159
lclavicle 2.1419e-014 6.95746e-015
lhumerus -44.7888 4.61175 79.7924
lradius 33.2533
lwrist -15.6365
lhand -5.27549 -31.6888
lfingers 7.12502
lthumb 20.5287 -2.75414
rfemur -27.6449 21.7558 14.6397
rtibia 25.7779
rfoot -16.9023 -31.2799
rtoes -2.9654
lfemur 8.43858 -6.79019 -33.4276
ltibia 19.1325
lfoot -21.4346 6.74166
ltoes -13.5002
2738
root 11.201 15.3746 9.05143 -2.16054 -3.22198 2.4267
lowerback 7.56118 -2.68567 -3.7246
upperback -4.91906 -4.06016 -0.128758
thorax -9.22801 -1.74065 2.56766
lowerneck -4.9774 -3.28825 -4.98094
upperneck 13.356 -5.11016 8.17621
head 5.15583 -2.26825 3.05582
rclavicle -6.70898e-014 -1.26228e-014
rhumerus -50.3871 0.407286 -76.2833
rradius 39.9989
rwrist 14.4653
rhand -4.62173 -51.0591
rfingers 7.12502
rthumb 21.1568 -79.9247
lclavicle -6.70898e-014 -1.26228e-014
lhumerus -44.9742 4.54347 79.8326
lradius 33.2786
lwrist -15.5492
lhand -5.41067 -31.7611
lfingers 7.12502
lthumb 20.3988 -2.81252
rfemur -27.7699 22.7571 14.1403
rtibia 25.3031
rfoot -17.5863 -32.2902
rtoes -1.6626
lfemur 8.47859 -6.73986 -33.3958
ltibia 19.2911
lfoot -21.2125 7.01351
ltoes -16.0681
2739
root 11.19 15.3683 9.10504 -1.98661 -3.01317 2.53958
lowerback 7.48756 -2.74418 -3.80566
upperback -4.95693 -4.14668 -0.136074
thorax -9.2157 -1.77792 2.61422
lowerneck -5.05668 -3.26827 -5.07902
upperneck 13.3927 -5.07118 8.16834
head 5.18019 -2.25191 3.07117
rclavicle 3.95581e-014 2.27608e-014
rhumerus -50.3615 0.51495 -76.2899
rradius 39.9955
rwrist 14.5085
rhand -4.66749 -51.119
rfingers 7.12502
rthumb 21.1129 -79.9895
lclavicle 3.95581e-014 2.27608e-014
lhumerus -44.9185 4.78129 79.7815
lradius 33.2553
lwrist -15.7169
lhand -5.58727 -31.8398
lfingers 7.12502
lthumb 20.2291 -2.87318
rfemur -27.9783 23.5587 13.5345
rtibia 24.7822
rfoot -18.11 -33.2106
rtoes -1.06149
lfemur 8.36426 -6.75431 -33.4548
ltibia 19.5742
lfoot -21.1906 6.9414
ltoes -16.6559
